<svg width="24" height="24" viewBox="0 0 24 24" fill="none" xmlns="http://www.w3.org/2000/svg">
  <circle cx="12" cy="12" r="12" fill="#26A17B"/>
  <path d="M12 21C16.9706 21 21 16.9706 21 12C21 7.02944 16.9706 3 12 3C7.02944 3 3 7.02944 3 12C3 16.9706 7.02944 21 12 21Z" fill="#26A17B"/>
  <path d="M13.0723 10.9322C13.5241 10.9073 13.8398 10.8474 14.0195 10.7524C14.1992 10.6574 14.2891 10.5041 14.2891 10.2925C14.2891 10.0062 14.1836 9.79565 13.9727 9.66074C13.7617 9.52583 13.4258 9.45837 12.9648 9.45837C12.459 9.45837 12.0996 9.54077 11.8867 9.70557C11.6738 9.87036 11.5674 10.136 11.5674 10.5024H9.52734C9.52734 9.93579 9.65625 9.46899 9.91406 9.10205C10.1719 8.73511 10.5391 8.4646 11.0156 8.29053C11.4922 8.11646 12.0586 8.02942 12.7148 8.02942C13.8789 8.02942 14.75 8.24731 15.3281 8.68311C15.9062 9.1189 16.1953 9.77075 16.1953 10.6387V13.3931C16.1953 13.969 16.2227 14.3831 16.2773 14.6353C16.332 14.8875 16.4336 15.158 16.582 15.447H14.4219C14.375 15.3245 14.3398 15.158 14.3164 14.9475C14.293 14.7371 14.2773 14.5237 14.2695 14.3076C13.9727 14.6584 13.6484 14.9124 13.2969 15.0696C12.9453 15.2268 12.5273 15.3054 12.043 15.3054C11.3555 15.3054 10.8086 15.1331 10.4023 14.7886C9.99609 14.4441 9.79297 13.9792 9.79297 13.3938C9.79297 12.8469 9.9707 12.4231 10.3262 12.1223C10.6816 11.8215 11.2422 11.635 12.0078 11.5627L13.0723 11.4729ZM12.3906 12.7756C12.1406 12.8245 11.9531 12.9114 11.8281 13.0364C11.7031 13.1614 11.6406 13.3225 11.6406 13.5198C11.6406 13.7336 11.7148 13.9045 11.8633 14.0325C12.0117 14.1604 12.207 14.2244 12.4492 14.2244C12.7617 14.2244 13.0195 14.1242 13.2227 13.9236C13.4258 13.723 13.5273 13.4525 13.5273 13.1121V12.6663L12.3906 12.7756Z" fill="white"/>
  <path d="M8.37891 7.97095V15.3635H6.37891V7.97095H8.37891Z" fill="white"/>
  <path d="M17.6211 7.97095V15.3635H15.6211V7.97095H17.6211Z" fill="white"/>
</svg>
